<?xml version="1.0" encoding="UTF-8" standalone="no"?><svg xmlns="http://www.w3.org/2000/svg" xmlns:xlink="http://www.w3.org/1999/xlink" clip-rule="evenodd" fill="#ffffff" fill-rule="evenodd" height="803" image-rendering="optimizeQuality" preserveAspectRatio="xMidYMid meet" text-rendering="geometricPrecision" version="1" viewBox="22.0 22.0 803.0 803.0" width="803" zoomAndPan="magnify"><g id="change1_1"><path d="M103 22l640 0c45,0 82,37 82,81l0 640c0,45 -37,82 -82,82l-640 0c-44,0 -81,-37 -81,-82l0 -640c0,-44 37,-81 81,-81zm320 308l144 -204 130 0 -209 297 209 298 -130 0 -144 -205 -143 205 -130 0 208 -298 -208 -297 130 0 143 204z"/></g></svg>