<?xml version="1.0" encoding="UTF-8" standalone="no"?><svg xmlns="http://www.w3.org/2000/svg" xmlns:xlink="http://www.w3.org/1999/xlink" fill="#ffffff" height="2435" preserveAspectRatio="xMidYMid meet" version="1" viewBox="-5.5 -1.6 2444.8 2434.6" width="2445" zoomAndPan="magnify"><g id="change1_1"><path d="M1220.534,2432.914C544.322,2427.714-5.52,1881.934,.042,1207.638,5.35,564.032,534.604,1.644,1221.941,.003c690.3-1.648,1210.921,580.339,1214.039,1213.372,3.283,666.576-550.947,1219.448-1215.446,1219.538Zm.129-132.063c572.321,1.926,1083.128-472.419,1085.872-1077.359,2.686-592.217-491.829-1088.794-1077.576-1091.54-614.809-2.883-1095.343,502.105-1100.228,1076.098-5.109,600.418,487.511,1086.401,1091.932,1092.801Z"/></g><g id="change1_2"><path d="M266.805,1215.751c2.001-229.891,82.247-429.645,229.079-603.747,146.89-174.17,333.991-282.003,557.353-322.563,279.795-50.807,531.355,18.087,753.807,193.422,151.812,119.656,257.365,273.198,315.861,456.903,75.754,237.899,57.649,470.608-55.227,693.613-115.737,228.659-296.601,387.238-537.593,471.962-252.427,88.745-502.285,70.913-739.982-50.652-286.006-146.272-457.181-381.297-511.44-698.971-7.855-45.989-8.095-93.279-11.859-139.968Zm841.047,319.569c6.58,3.758,11.304,6.251,15.826,9.069,70.812,44.124,141.627,88.241,212.371,132.475,19.625,12.271,26.973,10.998,38.601-9.147,11.215-19.431,21.49-39.404,32.287-59.079,93.892-171.099,188.047-342.053,281.634-513.318,62.929-115.161,125.095-230.74,187.471-346.203,3.273-6.058,5.316-12.78,7.931-19.193-1.074-.994-2.148-1.987-3.222-2.981-3.975,1.811-8.278,3.13-11.86,5.528-9.318,6.239-18.305,12.972-27.45,19.472-138.423,98.375-276.428,197.347-415.387,294.959-164.122,115.287-329.01,229.486-493.814,343.798-9.842,6.827-14.552,14.423-15.392,26.106-7.038,97.862-14.386,195.702-21.697,293.545-.318,4.25-1.19,8.458-1.803,12.685-5.837-10.506-8.169-20.869-10.78-31.162-29.989-118.225-59.792-236.499-90.374-354.57-3.256-12.569-.056-18.045,10.666-23.774,54.652-29.203,109.248-58.54,163.276-88.876,261.2-146.663,522.242-293.609,783.253-440.608,32.966-18.566,65.422-38.04,98.114-57.093-4.762-2.355-8.438-2.107-11.839-1.008-35.735,11.552-71.437,23.21-107.129,34.897-200.672,65.706-401.236,131.739-602.034,197.057-205.876,66.969-411.971,133.269-617.995,199.782-20.417,6.592-41.109,12.345-61.44,19.181-4.053,1.363-7.042,5.892-10.521,8.962,3.091,3.482,5.642,7.796,9.407,10.237,4.827,3.13,10.583,4.872,16.02,7.006,91.703,35.991,183.374,72.063,275.18,107.791,13.389,5.211,22.271,11.768,26.153,27.46,33.118,133.869,67.246,267.489,101.157,401.162,2.765,10.901,5.309,22.545,18.334,25.983,13.856,3.657,21.623-6.087,29.436-14.869,22.059-24.793,43.678-49.985,66.041-74.498,42.742-46.853,85.879-93.345,129.579-140.775Z"/></g></svg>